<?xml version="1.0" standalone="no"?>
<!DOCTYPE svg PUBLIC "-//W3C//DTD SVG 20010904//EN"
 "http://www.w3.org/TR/2001/REC-SVG-20010904/DTD/svg10.dtd">
<svg version="1.0" xmlns="http://www.w3.org/2000/svg"
 width="460.000000pt" height="460.000000pt" viewBox="0 0 460.000000 460.000000"
 preserveAspectRatio="xMidYMid meet">
<metadata>
Created by potrace 1.15, written by Peter Selinger 2001-2017
</metadata>
<g transform="translate(0.000000,460.000000) scale(0.100000,-0.100000)"
fill="#000000" stroke="none">
<path d="M2059 4420 c-36 -4 -113 -17 -171 -29 -58 -12 -115 -21 -126 -21 -11
0 -67 -16 -124 -36 -57 -20 -116 -39 -132 -41 -15 -3 -63 -22 -105 -43 -42
-20 -104 -49 -138 -65 -35 -15 -63 -31 -63 -35 0 -4 -19 -15 -42 -26 -24 -10
-47 -22 -53 -26 -74 -55 -107 -78 -114 -78 -5 0 -31 -20 -59 -45 -27 -25 -53
-45 -57 -45 -4 0 -19 -12 -34 -27 -16 -16 -68 -67 -117 -115 -49 -48 -101
-102 -117 -120 -15 -18 -48 -57 -72 -86 -25 -29 -45 -59 -45 -67 0 -8 -6 -18
-13 -22 -14 -9 -77 -97 -77 -108 0 -4 -13 -27 -30 -51 -43 -65 -117 -223 -163
-349 -45 -127 -58 -173 -86 -310 -43 -210 -46 -238 -46 -480 1 -205 4 -256 22
-350 12 -60 27 -137 34 -170 10 -56 26 -108 79 -265 19 -57 56 -141 114 -260
31 -65 117 -205 142 -231 13 -14 24 -30 24 -36 0 -7 6 -18 13 -25 8 -7 48 -54
89 -103 104 -123 349 -355 376 -355 6 0 28 -15 51 -34 22 -19 71 -51 108 -72
38 -21 74 -44 81 -51 7 -7 19 -13 27 -13 7 0 51 -20 96 -45 46 -24 93 -45 105
-45 11 0 24 -4 30 -9 15 -14 204 -77 269 -90 33 -7 89 -18 125 -26 94 -21 786
-21 880 0 36 8 92 19 125 26 65 13 254 76 269 90 6 5 19 9 30 9 12 0 59 21
105 45 45 25 89 45 96 45 8 0 20 6 27 13 7 7 43 30 81 51 37 21 86 53 108 72
23 19 45 34 51 34 27 0 272 232 376 355 41 49 81 96 89 103 7 7 13 18 13 25 0
6 11 22 24 36 25 26 112 168 142 231 10 19 33 67 52 105 19 39 38 84 42 100 5
17 26 82 48 145 22 63 45 142 51 175 7 33 22 110 34 170 18 94 21 145 22 350
0 242 -3 271 -46 480 -28 135 -41 181 -87 310 -45 126 -118 284 -162 349 -17
24 -30 47 -30 51 0 11 -63 99 -77 108 -7 4 -13 14 -13 22 0 8 -20 38 -45 67
-24 29 -57 68 -72 86 -16 18 -68 72 -117 120 -49 48 -101 99 -117 115 -15 15
-30 27 -34 27 -4 0 -30 20 -57 45 -28 25 -54 45 -59 45 -7 0 -40 23 -114 78
-5 4 -29 16 -52 26 -24 11 -43 22 -43 26 0 4 -28 20 -62 35 -35 16 -97 45
-139 65 -42 21 -90 40 -105 42 -16 3 -69 20 -119 38 -49 17 -115 36 -145 40
-30 5 -104 18 -165 30 -87 17 -156 23 -325 25 -118 2 -245 0 -281 -5z m913
-1317 c-46 -99 -76 -146 -116 -186 -95 -91 -124 -116 -179 -147 -31 -17 -57
-33 -57 -35 0 -2 18 -1 40 2 38 5 48 3 264 -71 53 -18 74 -35 234 -194 179
-178 187 -191 122 -192 -14 -1 -54 -6 -90 -13 l-64 -12 159 -157 160 -158
-154 0 -153 0 33 -38 c19 -22 70 -86 114 -143 44 -57 87 -111 95 -119 8 -9 27
-35 43 -58 15 -23 32 -42 39 -42 6 0 9 -2 7 -5 -7 -6 -77 19 -173 65 -48 22
-91 40 -97 40 -6 0 -48 18 -95 40 -47 22 -87 40 -88 40 -2 0 -9 -58 -16 -130
-7 -71 -15 -130 -17 -130 -3 0 -69 58 -148 130 -79 71 -145 130 -148 130 -6 0
-87 -133 -87 -143 0 -3 -11 -22 -24 -41 l-23 -35 -87 107 c-47 59 -99 122
-114 141 l-28 33 -32 -48 c-17 -27 -35 -62 -41 -77 -9 -24 -14 -26 -31 -17
-11 6 -28 23 -37 38 -10 15 -34 45 -54 67 -21 22 -83 94 -139 160 -164 194
-180 209 -180 165 0 -24 -2 -24 -55 -6 -22 7 -58 19 -80 26 -22 7 -45 15 -52
17 -6 3 -14 -5 -18 -16 -8 -28 -18 -27 -93 9 -35 17 -71 30 -80 30 -9 0 -40
23 -68 51 l-52 51 43 42 c32 32 44 53 49 87 7 43 7 44 24 22 20 -25 40 -29
184 -43 59 -5 148 -19 198 -31 50 -12 94 -18 98 -14 4 4 -6 17 -22 28 -15 12
-49 43 -74 70 -25 26 -51 47 -57 47 -7 0 -25 6 -41 14 -86 42 -128 55 -214 70
-89 15 -96 15 -107 -1 -7 -9 -13 -25 -13 -35 0 -29 -13 -21 -44 28 -22 35 -43
53 -83 71 -36 17 -53 30 -53 43 0 16 -56 203 -75 253 -7 16 13 17 331 17 l339
0 37 69 37 69 83 6 c164 14 309 9 452 -14 l140 -22 90 27 c50 15 141 44 201
65 61 21 120 39 132 39 22 1 22 1 5 -36z"/>
</g>
</svg>
